<svg width="26" height="26" fill="none" xmlns="http://www.w3.org/2000/svg"><path d="M13 8.125a4.875 4.875 0 1 0 0 9.75 4.875 4.875 0 0 0 0-9.75Zm0 8.125a3.25 3.25 0 1 1 0-6.5 3.25 3.25 0 0 1 0 6.5Zm4.875-13.813h-9.75a5.694 5.694 0 0 0-5.688 5.688v9.75a5.694 5.694 0 0 0 5.688 5.688h9.75a5.694 5.694 0 0 0 5.688-5.688v-9.75a5.693 5.693 0 0 0-5.688-5.688Zm4.063 15.438a4.062 4.062 0 0 1-4.063 4.063h-9.75a4.062 4.062 0 0 1-4.063-4.063v-9.75a4.062 4.062 0 0 1 4.063-4.063h9.75a4.062 4.062 0 0 1 4.063 4.063v9.75ZM19.5 7.719a1.219 1.219 0 1 1-2.438 0 1.219 1.219 0 0 1 2.438 0Z" fill="#CDCFD7"/></svg>