<svg width="186" height="35" fill="none" xmlns="http://www.w3.org/2000/svg"><g clip-path="url(#a)" fill="#F80"><path d="M43.014.444a.89.89 0 0 1 .633.265c.17.17.265.4.267.64v32.738a.92.92 0 0 1-.26.643.894.894 0 0 1-.632.27h-4.397a.894.894 0 0 1-.632-.27.92.92 0 0 1-.26-.643V12.79c-.347.285-.704.56-1.072.822-1.046.74-2.109 1.366-3.14 1.975-1.03.608-1.711 1.085-2.522 1.57a12.864 12.864 0 0 0-3.886 3.515 13.066 13.066 0 0 0-2.183 4.793.906.906 0 0 1-.315.51.885.885 0 0 1-.56.198H19.86a.885.885 0 0 1-.561-.197.907.907 0 0 1-.315-.51 13.063 13.063 0 0 0-2.186-4.8 12.863 12.863 0 0 0-3.89-3.517c-.812-.485-1.623-1.02-2.524-1.57-.9-.552-2.093-1.235-3.14-1.975a15.486 15.486 0 0 1-1.07-.822v21.304a.92.92 0 0 1-.261.643.895.895 0 0 1-.632.27H.892a.895.895 0 0 1-.631-.27.92.92 0 0 1-.261-.643V1.357A.92.92 0 0 1 .264.712.894.894 0 0 1 .9.444h4.34a.893.893 0 0 1 .575.221c.16.14.267.333.301.544.243 1.596 1.168 5.322 4.551 7.403.893.535 1.777 1.135 2.75 1.72.974.583 1.923 1.118 2.848 1.776a22.83 22.83 0 0 1 5.014 4.606.872.872 0 0 0 .681.335.859.859 0 0 0 .682-.335 22.83 22.83 0 0 1 5.005-4.614c.965-.658 1.971-1.25 2.856-1.777.884-.526 1.874-1.176 2.742-1.71 3.391-2.049 4.316-5.759 4.56-7.404a.916.916 0 0 1 .3-.544.893.893 0 0 1 .575-.22h4.333Zm45.965 16.83c0 9.517-8.819 17.274-19.665 17.274-10.847 0-19.666-7.749-19.666-17.274C49.648 7.749 58.467 0 69.314 0 80.16 0 88.979 7.749 88.979 17.274ZM69.314 6.276c-7.432 0-13.476 4.935-13.476 10.998 0 6.062 6.044 10.956 13.476 10.956 7.43 0 13.483-4.935 13.483-10.99 0-6.053-6.052-10.964-13.483-10.964Zm62.938 10.998c0 9.517-8.818 17.274-19.665 17.274s-19.665-7.749-19.665-17.274C92.922 7.749 101.74 0 112.587 0s19.665 7.749 19.665 17.274ZM112.587 6.276c-7.431 0-13.483 4.935-13.483 10.998 0 6.062 6.052 10.956 13.483 10.956 7.431 0 13.475-4.935 13.475-10.99 0-6.053-6.068-10.964-13.475-10.964Zm55.151 10.743V.905a.913.913 0 0 1 .551-.836.879.879 0 0 1 .341-.069h4.397a.88.88 0 0 1 .631.265.908.908 0 0 1 .262.64v32.738a.912.912 0 0 1-.551.836.88.88 0 0 1-.342.069h-4.356a.887.887 0 0 1-.825-.559.932.932 0 0 1-.068-.346v-2.575a5.333 5.333 0 0 0-.519-2.328c-1.29-2.648-4.624-7.55-12.412-10.553a33.793 33.793 0 0 1-9.135-5.166.88.88 0 0 0-.945-.113.897.897 0 0 0-.499.82v19.915a.91.91 0 0 1-.262.64.885.885 0 0 1-.631.265h-4.397a.888.888 0 0 1-.631-.265.912.912 0 0 1-.261-.64V.905c0-.24.094-.47.261-.64a.888.888 0 0 1 .631-.265h4.276a.877.877 0 0 1 .494.165c.145.105.255.25.317.419.706 1.941 3.643 8.226 12.932 11.73a31.166 31.166 0 0 1 9.24 5.387.886.886 0 0 0 1.334-.194.917.917 0 0 0 .143-.488h.024Zm11.633 14.165c0-.666.195-1.317.56-1.87a3.331 3.331 0 0 1 1.49-1.24 3.278 3.278 0 0 1 3.617.734c.464.47.779 1.071.907 1.724.127.654.06 1.33-.193 1.945a3.355 3.355 0 0 1-1.225 1.508 3.287 3.287 0 0 1-4.189-.423 3.396 3.396 0 0 1-.967-2.378Z"/></g><defs><clipPath id="a"><path fill="#fff" d="M0 0h186v35H0z"/></clipPath></defs></svg>