<svg width="26" height="26" fill="none" xmlns="http://www.w3.org/2000/svg"><path d="M24.059 2.66a.914.914 0 0 0-.93-.16L2.546 10.556a1.445 1.445 0 0 0 .247 2.764l5.333 1.047v5.947a1.617 1.617 0 0 0 1.015 1.506 1.616 1.616 0 0 0 1.779-.38l2.571-2.666 4.08 3.57a1.613 1.613 0 0 0 1.575.327 1.608 1.608 0 0 0 1.084-1.181l4.122-17.934a.914.914 0 0 0-.293-.895Zm-6.21 3.656L8.75 12.832l-5.037-.988 14.136-5.528ZM9.751 20.313V15.49l2.517 2.208-2.517 2.615Zm8.89.812-8.398-7.363L22.33 5.1l-3.69 16.025Z" fill="#CDCFD7"/></svg>