<svg width="26" height="26" fill="none" xmlns="http://www.w3.org/2000/svg"><path d="m19.052 14.71-3.25-1.625a.813.813 0 0 0-.813.051l-1.492.995a4.118 4.118 0 0 1-1.625-1.625l.996-1.492a.813.813 0 0 0 .05-.812l-1.624-3.25a.813.813 0 0 0-.73-.452A4.062 4.062 0 0 0 6.5 10.563a8.948 8.948 0 0 0 8.937 8.937 4.064 4.064 0 0 0 4.063-4.063.813.813 0 0 0-.45-.727Zm-3.614 3.165a7.32 7.32 0 0 1-7.312-7.313 2.437 2.437 0 0 1 1.959-2.39l1.166 2.336-.992 1.476a.812.812 0 0 0-.075.763 5.735 5.735 0 0 0 3.063 3.062.813.813 0 0 0 .77-.067l1.483-.989 2.336 1.166a2.437 2.437 0 0 1-2.398 1.956ZM13.001 2.437a10.562 10.562 0 0 0-9.326 15.527l-1.152 3.459a1.625 1.625 0 0 0 2.055 2.055l3.458-1.152a10.564 10.564 0 1 0 4.965-19.889Zm0 19.5a8.924 8.924 0 0 1-4.475-1.199.814.814 0 0 0-.664-.068l-3.799 1.267L5.33 18.14a.813.813 0 0 0-.067-.664A8.937 8.937 0 1 1 13 21.937Z" fill="#CDCFD7"/></svg>