<svg width="186" height="35" viewBox="0 0 186 35" fill="none" xmlns="http://www.w3.org/2000/svg">
<g clip-path="url(#clip0_30_29)">
<path d="M43.0136 0.444092C43.251 0.444082 43.4788 0.539147 43.6475 0.708601C43.8161 0.878055 43.9119 1.10818 43.9141 1.34891V34.0869C43.9141 34.3276 43.8203 34.5586 43.6532 34.7296C43.4861 34.9006 43.2591 34.9977 43.0217 34.9999H38.6246C38.3872 34.9977 38.1602 34.9006 37.9931 34.7296C37.8259 34.5586 37.7322 34.3276 37.7322 34.0869V12.7907C37.3861 13.0759 37.0291 13.3501 36.6613 13.6133C35.6148 14.3536 34.552 14.9788 33.5217 15.5875C32.4914 16.1961 31.8099 16.6732 30.9987 17.1585C29.4798 18.048 28.1574 19.2444 27.1135 20.6735C26.0697 22.1026 25.3266 23.734 24.9303 25.4664C24.8859 25.668 24.7747 25.8481 24.6153 25.9768C24.4559 26.1055 24.2579 26.175 24.0542 26.1738H19.8599C19.6562 26.175 19.4581 26.1055 19.2987 25.9768C19.1393 25.8481 19.0282 25.668 18.9837 25.4664C18.5876 23.7318 17.8437 22.0984 16.7984 20.6678C15.753 19.2371 14.4285 18.0398 12.9073 17.1503C12.096 16.665 11.2848 16.1303 10.3843 15.5792C9.48375 15.0281 8.29118 14.3454 7.24464 13.6051C6.87687 13.3473 6.51991 13.0732 6.17377 12.7825V34.0869C6.17378 34.3276 6.08002 34.5586 5.91289 34.7296C5.74576 34.9006 5.51879 34.9977 5.28137 34.9999H0.892396C0.654975 34.9977 0.428006 34.9006 0.260878 34.7296C0.0937505 34.5586 -9.63468e-06 34.3276 7.42579e-10 34.0869V1.35714C7.42579e-10 1.11498 0.0948749 0.882745 0.263753 0.711516C0.432632 0.540287 0.661681 0.444092 0.900511 0.444092H5.24081C5.45218 0.447051 5.65579 0.525311 5.81598 0.66517C5.97617 0.805029 6.08272 0.997572 6.11698 1.20907C6.36036 2.80484 7.28521 6.53105 10.6682 8.61213C11.5606 9.14679 12.4449 9.74726 13.4184 10.3313C14.3919 10.9153 15.3411 11.45 16.266 12.108C18.1546 13.3811 19.8446 14.9338 21.2796 16.7144C21.3609 16.8188 21.4644 16.9031 21.5824 16.9612C21.7005 17.0192 21.8299 17.0493 21.9611 17.0493C22.0923 17.0493 22.2217 17.0192 22.3398 16.9612C22.4578 16.9031 22.5613 16.8188 22.6426 16.7144C24.0745 14.9315 25.7618 13.376 27.6481 12.0998C28.6135 11.4417 29.6195 10.8495 30.5038 10.3231C31.3881 9.79662 32.3778 9.14679 33.2459 8.61213C36.637 6.56395 37.5618 2.8542 37.8052 1.20907C37.8395 0.997572 37.946 0.805029 38.1062 0.66517C38.2664 0.525311 38.47 0.447051 38.6814 0.444092H43.0136Z" fill="#FF8800"/>
<path d="M88.9788 17.2738C88.9788 26.7908 80.1603 34.5476 69.3136 34.5476C58.4669 34.5476 49.6484 26.7991 49.6484 17.2738C49.6484 7.74853 58.4669 0 69.3136 0C80.1603 0 88.9788 7.74853 88.9788 17.2738ZM69.3136 6.27615C61.8824 6.27615 55.8384 11.2115 55.8384 17.2738C55.8384 23.3361 61.8824 28.2303 69.3136 28.2303C76.7449 28.2303 82.7969 23.295 82.7969 17.2409C82.7969 11.1868 76.7449 6.27615 69.3136 6.27615Z" fill="#FF8800"/>
<path d="M132.252 17.2738C132.252 26.7908 123.434 34.5476 112.587 34.5476C101.74 34.5476 92.9219 26.7991 92.9219 17.2738C92.9219 7.74853 101.74 0 112.587 0C123.434 0 132.252 7.74853 132.252 17.2738ZM112.587 6.27615C105.156 6.27615 99.1038 11.2115 99.1038 17.2738C99.1038 23.3361 105.156 28.2303 112.587 28.2303C120.018 28.2303 126.062 23.295 126.062 17.2409C126.062 11.1868 119.994 6.27615 112.587 6.27615Z" fill="#FF8800"/>
<path d="M167.738 17.0188V0.904817C167.738 0.785994 167.761 0.668335 167.806 0.558558C167.851 0.44878 167.916 0.349034 167.999 0.265014C168.082 0.180994 168.18 0.114347 168.289 0.0688752C168.397 0.0234039 168.513 0 168.63 0H173.027C173.145 0 173.261 0.0234039 173.369 0.0688752C173.477 0.114347 173.576 0.180994 173.658 0.265014C173.741 0.349034 173.807 0.44878 173.852 0.558558C173.897 0.668335 173.92 0.785994 173.92 0.904817V33.6428C173.92 33.7616 173.897 33.8793 173.852 33.989C173.807 34.0988 173.741 34.1986 173.658 34.2826C173.576 34.3666 173.477 34.4333 173.369 34.4787C173.261 34.5242 173.145 34.5476 173.027 34.5476H168.671C168.554 34.5476 168.438 34.5242 168.329 34.4787C168.221 34.4333 168.123 34.3666 168.04 34.2826C167.957 34.1986 167.891 34.0988 167.846 33.989C167.802 33.8793 167.778 33.7616 167.778 33.6428V31.0682C167.783 30.2622 167.605 29.4659 167.259 28.7403C165.969 26.0917 162.635 21.1892 154.847 18.1868C151.557 16.9541 148.475 15.2115 145.712 13.0212C145.581 12.913 145.423 12.8448 145.256 12.8248C145.089 12.8047 144.919 12.8335 144.767 12.9078C144.616 12.9822 144.488 13.0989 144.399 13.2443C144.311 13.3897 144.265 13.5577 144.268 13.7286V33.6428C144.268 33.8828 144.174 34.1129 144.006 34.2826C143.839 34.4523 143.612 34.5476 143.375 34.5476H138.978C138.742 34.5476 138.515 34.4523 138.347 34.2826C138.18 34.1129 138.086 33.8828 138.086 33.6428V0.904817C138.086 0.664844 138.18 0.434701 138.347 0.265014C138.515 0.0953281 138.742 0 138.978 0H143.254C143.431 0.00358117 143.603 0.0611931 143.748 0.165348C143.893 0.269502 144.003 0.415381 144.065 0.584018C144.771 2.52526 147.708 8.80964 156.997 12.3138C160.358 13.5602 163.484 15.3826 166.237 17.7015C166.366 17.815 166.525 17.8884 166.694 17.9131C166.863 17.9377 167.036 17.9126 167.191 17.8407C167.347 17.7688 167.479 17.6531 167.571 17.5074C167.664 17.3617 167.713 17.1921 167.714 17.0188H167.738Z" fill="#FF8800"/>
<path d="M179.371 31.1836C179.371 30.5179 179.566 29.8671 179.931 29.3137C180.296 28.7602 180.815 28.329 181.421 28.0746C182.028 27.8202 182.696 27.7541 183.34 27.8846C183.983 28.0151 184.575 28.3363 185.038 28.8076C185.502 29.2789 185.817 29.8792 185.945 30.5323C186.072 31.1855 186.005 31.8622 185.752 32.4768C185.5 33.0914 185.073 33.6162 184.527 33.9849C183.98 34.3536 183.338 34.5495 182.681 34.5479C182.246 34.5479 181.815 34.4608 181.413 34.2916C181.01 34.1225 180.645 33.8745 180.338 33.562C180.03 33.2495 179.787 32.8786 179.621 32.4704C179.455 32.0623 179.37 31.625 179.371 31.1836Z" fill="#FF8800"/>
</g>
<defs>
<clipPath id="clip0_30_29">
<rect width="186" height="35" fill="white"/>
</clipPath>
</defs>
</svg>
