<svg width="186" height="36" viewBox="0 0 186 36" fill="none" xmlns="http://www.w3.org/2000/svg">
<g clip-path="url(#clip0_2_103)">
<path d="M43.0136 0.944183C43.251 0.944174 43.4788 1.03924 43.6475 1.20869C43.8161 1.37815 43.9119 1.60827 43.9141 1.849V34.587C43.9141 34.8277 43.8203 35.0587 43.6532 35.2297C43.4861 35.4007 43.2591 35.4978 43.0217 35.5H38.6246C38.3872 35.4978 38.1602 35.4007 37.9931 35.2297C37.8259 35.0587 37.7322 34.8277 37.7322 34.587V13.2908C37.3861 13.576 37.0291 13.8502 36.6613 14.1134C35.6148 14.8537 34.552 15.4788 33.5217 16.0875C32.4914 16.6962 31.8099 17.1733 30.9987 17.6586C29.4798 18.5481 28.1574 19.7445 27.1135 21.1736C26.0697 22.6027 25.3266 24.2341 24.9303 25.9665C24.8859 26.1681 24.7747 26.3482 24.6153 26.4769C24.4559 26.6056 24.2579 26.6751 24.0542 26.6739H19.8599C19.6562 26.6751 19.4581 26.6056 19.2987 26.4769C19.1393 26.3482 19.0282 26.1681 18.9837 25.9665C18.5876 24.2319 17.8437 22.5985 16.7984 21.1678C15.753 19.7372 14.4285 18.5399 12.9073 17.6504C12.096 17.1651 11.2848 16.6304 10.3843 16.0793C9.48375 15.5282 8.29118 14.8455 7.24464 14.1052C6.87687 13.8474 6.51991 13.5732 6.17377 13.2826V34.587C6.17378 34.8277 6.08002 35.0587 5.91289 35.2297C5.74576 35.4007 5.51879 35.4978 5.28137 35.5H0.892396C0.654975 35.4978 0.428006 35.4007 0.260878 35.2297C0.0937505 35.0587 -9.63468e-06 34.8277 7.42579e-10 34.587V1.85723C7.42579e-10 1.61507 0.0948749 1.38284 0.263753 1.21161C0.432632 1.04038 0.661681 0.944183 0.900511 0.944183H5.24081C5.45218 0.947143 5.65579 1.0254 5.81598 1.16526C5.97617 1.30512 6.08272 1.49766 6.11698 1.70917C6.36036 3.30494 7.28521 7.03114 10.6682 9.11222C11.5606 9.64689 12.4449 10.2474 13.4184 10.8314C14.3919 11.4154 15.3411 11.9501 16.266 12.6081C18.1546 13.8812 19.8446 15.4338 21.2796 17.2145C21.3609 17.3189 21.4644 17.4032 21.5824 17.4612C21.7005 17.5193 21.8299 17.5494 21.9611 17.5494C22.0923 17.5494 22.2217 17.5193 22.3398 17.4612C22.4578 17.4032 22.5613 17.3189 22.6426 17.2145C24.0745 15.4316 25.7618 13.8761 27.6481 12.5999C28.6135 11.9418 29.6195 11.3496 30.5038 10.8231C31.3881 10.2967 32.3778 9.64689 33.2459 9.11222C36.637 7.06404 37.5618 3.35429 37.8052 1.70917C37.8395 1.49766 37.946 1.30512 38.1062 1.16526C38.2664 1.0254 38.47 0.947143 38.6814 0.944183H43.0136Z" fill="white"/>
<path d="M88.9788 17.7738C88.9788 27.2908 80.1603 35.0476 69.3136 35.0476C58.4669 35.0476 49.6484 27.2991 49.6484 17.7738C49.6484 8.24853 58.4669 0.5 69.3136 0.5C80.1603 0.5 88.9788 8.24853 88.9788 17.7738ZM69.3136 6.77615C61.8824 6.77615 55.8384 11.7115 55.8384 17.7738C55.8384 23.8361 61.8824 28.7303 69.3136 28.7303C76.7449 28.7303 82.7969 23.795 82.7969 17.7409C82.7969 11.6868 76.7449 6.77615 69.3136 6.77615Z" fill="white"/>
<path d="M132.252 17.7738C132.252 27.2908 123.434 35.0476 112.587 35.0476C101.74 35.0476 92.9219 27.2991 92.9219 17.7738C92.9219 8.24853 101.74 0.5 112.587 0.5C123.434 0.5 132.252 8.24853 132.252 17.7738ZM112.587 6.77615C105.156 6.77615 99.1038 11.7115 99.1038 17.7738C99.1038 23.8361 105.156 28.7303 112.587 28.7303C120.018 28.7303 126.062 23.795 126.062 17.7409C126.062 11.6868 119.994 6.77615 112.587 6.77615Z" fill="white"/>
<path d="M167.738 17.5188V1.40482C167.738 1.28599 167.761 1.16834 167.806 1.05856C167.851 0.94878 167.916 0.849034 167.999 0.765014C168.082 0.680994 168.18 0.614347 168.289 0.568875C168.397 0.523404 168.513 0.5 168.63 0.5H173.027C173.145 0.5 173.261 0.523404 173.369 0.568875C173.477 0.614347 173.576 0.680994 173.658 0.765014C173.741 0.849034 173.807 0.94878 173.852 1.05856C173.897 1.16834 173.92 1.28599 173.92 1.40482V34.1428C173.92 34.2616 173.897 34.3793 173.852 34.489C173.807 34.5988 173.741 34.6986 173.658 34.7826C173.576 34.8666 173.477 34.9333 173.369 34.9787C173.261 35.0242 173.145 35.0476 173.027 35.0476H168.671C168.554 35.0476 168.438 35.0242 168.329 34.9787C168.221 34.9333 168.123 34.8666 168.04 34.7826C167.957 34.6986 167.891 34.5988 167.846 34.489C167.802 34.3793 167.778 34.2616 167.778 34.1428V31.5682C167.783 30.7622 167.605 29.9659 167.259 29.2403C165.969 26.5917 162.635 21.6892 154.847 18.6868C151.557 17.4541 148.475 15.7115 145.712 13.5212C145.581 13.413 145.423 13.3448 145.256 13.3248C145.089 13.3047 144.919 13.3335 144.767 13.4078C144.616 13.4822 144.488 13.5989 144.399 13.7443C144.311 13.8897 144.265 14.0577 144.268 14.2286V34.1428C144.268 34.3828 144.174 34.6129 144.006 34.7826C143.839 34.9523 143.612 35.0476 143.375 35.0476H138.978C138.742 35.0476 138.515 34.9523 138.347 34.7826C138.18 34.6129 138.086 34.3828 138.086 34.1428V1.40482C138.086 1.16484 138.18 0.934701 138.347 0.765014C138.515 0.595328 138.742 0.5 138.978 0.5H143.254C143.431 0.503581 143.603 0.561193 143.748 0.665348C143.893 0.769502 144.003 0.915381 144.065 1.08402C144.771 3.02526 147.708 9.30964 156.997 12.8138C160.358 14.0602 163.484 15.8826 166.237 18.2015C166.366 18.315 166.525 18.3884 166.694 18.4131C166.863 18.4377 167.036 18.4126 167.191 18.3407C167.347 18.2688 167.479 18.1531 167.571 18.0074C167.664 17.8617 167.713 17.6921 167.714 17.5188H167.738Z" fill="white"/>
<path d="M179.371 31.6831C179.371 31.0174 179.566 30.3666 179.931 29.8132C180.296 29.2597 180.815 28.8285 181.421 28.5741C182.028 28.3198 182.696 28.2536 183.34 28.3841C183.983 28.5146 184.575 28.8358 185.038 29.3071C185.502 29.7785 185.817 30.3787 185.945 31.0318C186.072 31.685 186.005 32.3617 185.752 32.9763C185.5 33.5909 185.073 34.1157 184.527 34.4844C183.98 34.8531 183.338 35.049 182.681 35.0474C182.246 35.0474 181.815 34.9603 181.413 34.7911C181.01 34.622 180.645 34.374 180.338 34.0615C180.03 33.749 179.787 33.3781 179.621 32.9699C179.455 32.5618 179.37 32.1245 179.371 31.6831Z" fill="white"/>
</g>
<defs>
<clipPath id="clip0_2_103">
<rect width="186" height="35" fill="white" transform="translate(0 0.5)"/>
</clipPath>
</defs>
</svg>
