<svg width="26" height="26" viewBox="0 0 26 26" fill="none" xmlns="http://www.w3.org/2000/svg">
<path d="M24.0588 2.65998C23.9329 2.55128 23.7797 2.47898 23.6158 2.45088C23.4519 2.42278 23.2834 2.43995 23.1285 2.50053L2.54581 10.5554C2.25411 10.6689 2.00715 10.874 1.84211 11.1399C1.67707 11.4059 1.60289 11.7182 1.63073 12.0299C1.65857 12.3417 1.78692 12.6359 1.99647 12.8684C2.20602 13.1009 2.48542 13.259 2.79261 13.319L8.12565 14.3661V20.3126C8.1246 20.6365 8.22086 20.9532 8.40194 21.2218C8.58303 21.4903 8.8406 21.6983 9.14128 21.8187C9.44149 21.9413 9.77164 21.9707 10.0888 21.9032C10.406 21.8356 10.6955 21.6742 10.9196 21.4399L13.4912 18.7729L17.571 22.3438C17.8653 22.6049 18.2449 22.7494 18.6384 22.7501C18.8108 22.7499 18.9821 22.7228 19.1462 22.6698C19.4143 22.5848 19.6554 22.431 19.8455 22.2237C20.0356 22.0165 20.1682 21.763 20.2299 21.4887L24.3523 3.55474C24.3892 3.39301 24.3813 3.22428 24.3296 3.06666C24.2779 2.90903 24.1843 2.76845 24.0588 2.65998ZM17.8492 6.31623L8.75026 12.8325L3.71276 11.8443L17.8492 6.31623ZM9.75065 20.3126V15.4904L12.2684 17.6983L9.75065 20.3126ZM18.6404 21.1251L10.2432 13.7618L22.3292 5.09951L18.6404 21.1251Z" fill="#CDCFD7"/>
</svg>
