<svg width="26" height="26" viewBox="0 0 26 26" fill="none" xmlns="http://www.w3.org/2000/svg">
<path d="M19.0518 14.7103L15.8018 13.0853C15.6739 13.0216 15.5314 12.9927 15.3887 13.0016C15.2461 13.0105 15.1083 13.0569 14.9893 13.1361L13.4974 14.1314C12.8125 13.7549 12.2489 13.1913 11.8724 12.5064L12.8677 11.0145C12.9469 10.8955 12.9932 10.7577 13.0022 10.615C13.0111 10.4724 12.9822 10.3299 12.9185 10.202L11.2935 6.95195C11.2261 6.81593 11.122 6.7015 10.9929 6.62162C10.8639 6.54174 10.715 6.49961 10.5632 6.5C9.48578 6.5 8.45246 6.92801 7.6906 7.68988C6.92873 8.45175 6.50072 9.48506 6.50072 10.5625C6.50341 12.932 7.4459 15.2038 9.12142 16.8793C10.7969 18.5548 13.0687 19.4973 15.4382 19.5C15.9717 19.5 16.5 19.3949 16.9929 19.1908C17.4858 18.9866 17.9336 18.6874 18.3108 18.3101C18.6881 17.9329 18.9873 17.485 19.1915 16.9922C19.3956 16.4993 19.5007 15.971 19.5007 15.4375C19.5008 15.2866 19.4589 15.1386 19.3796 15.0101C19.3003 14.8817 19.1868 14.7779 19.0518 14.7103ZM15.4382 17.875C13.4995 17.8728 11.6408 17.1017 10.2699 15.7308C8.89898 14.36 8.12787 12.5012 8.12572 10.5625C8.12556 9.99895 8.32068 9.45275 8.67788 9.01686C9.03507 8.58097 9.53227 8.28232 10.0849 8.17172L11.2508 10.5077L10.2585 11.9844C10.1844 12.0956 10.1388 12.2234 10.1259 12.3565C10.113 12.4895 10.133 12.6237 10.1844 12.7471C10.7657 14.1287 11.8649 15.2279 13.2465 15.8092C13.3703 15.8628 13.5055 15.8848 13.6399 15.8731C13.7743 15.8614 13.9037 15.8164 14.0163 15.7422L15.5002 14.753L17.8361 15.9189C17.7247 16.4721 17.4247 16.9696 16.9874 17.3263C16.5501 17.683 16.0026 17.8769 15.4382 17.875ZM13.0007 2.4375C11.1771 2.4371 9.3845 2.90884 7.79732 3.8068C6.21014 4.70475 4.88247 5.99833 3.94355 7.56163C3.00463 9.12493 2.48644 10.9047 2.43943 12.7277C2.39241 14.5507 2.81816 16.3548 3.67525 17.9644L2.52252 21.4226C2.42703 21.7089 2.41317 22.0162 2.4825 22.3099C2.55182 22.6037 2.70159 22.8723 2.91501 23.0857C3.12842 23.2991 3.39706 23.4489 3.69082 23.5182C3.98457 23.5875 4.29182 23.5737 4.57814 23.4782L8.03634 22.3255C9.45291 23.0789 11.0225 23.4997 12.626 23.556C14.2295 23.6123 15.8247 23.3025 17.2906 22.6502C18.7565 21.9979 20.0545 21.0202 21.0861 19.7914C22.1177 18.5625 22.8559 17.1148 23.2444 15.5581C23.633 14.0014 23.6618 12.3766 23.3287 10.8071C22.9956 9.23759 22.3093 7.76459 21.322 6.49991C20.3346 5.23524 19.0721 4.21212 17.6302 3.50823C16.1884 2.80433 14.6052 2.43816 13.0007 2.4375ZM13.0007 21.9375C11.4295 21.9386 9.8859 21.5248 8.52588 20.738C8.4263 20.6803 8.31559 20.6444 8.20108 20.6326C8.08657 20.6209 7.97087 20.6336 7.86166 20.67L4.06322 21.9375L5.3297 18.1391C5.36621 18.0299 5.37911 17.9143 5.36756 17.7998C5.356 17.6852 5.32025 17.5745 5.26267 17.4748C4.27749 15.7716 3.88194 13.7907 4.13739 11.8397C4.39284 9.88867 5.28501 8.07647 6.6755 6.68423C8.06598 5.29198 9.87706 4.39752 11.8278 4.13961C13.7785 3.88169 15.7598 4.27474 17.4643 5.25777C19.1689 6.24081 20.5013 7.75888 21.2551 9.57648C22.0088 11.3941 22.1416 13.4096 21.633 15.3104C21.1243 17.2112 20.0026 18.891 18.4418 20.0893C16.881 21.2875 14.9684 21.9372 13.0007 21.9375Z" fill="#CDCFD7"/>
</svg>
